solid WebbingCutter
facet normal 0.0 -1.0 0.0
  outer loop
    vertex 81.49206596502725 200.37086941654434 145.0358527227555
    vertex 77.49206596502727 200.37086941654434 130.03585272275552
    vertex 81.49206596502727 200.37086941654434 130.03585272275552
  endloop
endfacet
facet normal 0.0 -1.0 0.0
  outer loop
    vertex 77.49206596502727 200.37086941654434 130.03585272275552
    vertex 81.49206596502725 200.37086941654434 145.0358527227555
    vertex 75.49206596502725 200.37086941654434 132.03585272275552
  endloop
endfacet
facet normal 0.0 -1.0 0.0
  outer loop
    vertex 75.49206596502725 200.37086941654434 132.03585272275552
    vertex 81.49206596502725 200.37086941654434 145.0358527227555
    vertex 75.49206596502725 200.37086941654434 143.03585272275552
  endloop
endfacet
facet normal 0.0 -1.0 0.0
  outer loop
    vertex 75.49206596502725 200.37086941654434 143.03585272275552
    vertex 81.49206596502725 200.37086941654434 145.0358527227555
    vertex 77.49206596502725 200.37086941654434 145.0358527227555
  endloop
endfacet
facet normal 0.9999913021169932 0.004170814112449775 3.7600474044972835e-16
  outer loop
    vertex 81.49206596502727 200.37086941654434 130.03585272275552
    vertex 81.49206596502725 201.62879873060277 137.09586034608122
    vertex 81.49206596502725 200.37086941654434 145.0358527227555
  endloop
endfacet
facet normal 0.9999913021169932 0.004170814112449775 3.7600474044972835e-16
  outer loop
    vertex 81.49206596502725 201.62879873060277 137.09586034608122
    vertex 81.49206596502727 200.37086941654434 130.03585272275552
    vertex 81.49206596502725 201.79862944886062 136.6858527227555
  endloop
endfacet
facet normal 0.9999913021169932 0.004170814112449775 3.7600474044972835e-16
  outer loop
    vertex 81.49206596502725 201.79862944886062 136.6858527227555
    vertex 81.49206596502727 200.37086941654434 130.03585272275552
    vertex 81.46693703512251 206.3957630365314 130.03762972275553
  endloop
endfacet
facet normal 0.9999913021169932 0.004170814112449775 3.7600474044972835e-16
  outer loop
    vertex 81.49206596502725 200.37086941654434 145.0358527227555
    vertex 81.49206596502725 201.62879873060277 137.09586034608122
    vertex 81.49206596502725 201.5708726352942 137.53585272275552
  endloop
endfacet
facet normal 0.9999913021169932 0.004170814112449775 3.7600474044972835e-16
  outer loop
    vertex 81.49206596502725 201.79862944886062 136.6858527227555
    vertex 81.46693703512251 206.3957630365314 130.03762972275553
    vertex 81.49206596502725 202.06879110727706 136.33377119473838
  endloop
endfacet
facet normal 0.9999913021169932 0.004170814112449775 3.7600474044972835e-16
  outer loop
    vertex 81.49206596502725 202.06879110727706 136.33377119473838
    vertex 81.46693703512251 206.3957630365314 130.03762972275553
    vertex 81.49206596502725 202.4208726352942 136.06360953632196
  endloop
endfacet
facet normal 0.9999913021169932 0.004170814112449775 3.7600474044972835e-16
  outer loop
    vertex 81.49206596502725 202.4208726352942 136.06360953632196
    vertex 81.46693703512251 206.3957630365314 130.03762972275553
    vertex 81.49206596502725 202.8308802586199 135.8937788180641
  endloop
endfacet
facet normal 0.9999913021169932 0.004170814112449775 3.7600474044972835e-16
  outer loop
    vertex 81.49206596502725 202.8308802586199 135.8937788180641
    vertex 81.46693703512251 206.3957630365314 130.03762972275553
    vertex 81.49206596502725 203.2708726352942 135.8358527227555
  endloop
endfacet
facet normal 0.9999913021169932 0.004170814112449775 3.7600474044972835e-16
  outer loop
    vertex 81.49206596502725 203.2708726352942 135.8358527227555
    vertex 81.46693703512251 206.3957630365314 130.03762972275553
    vertex 81.49206596502725 203.7108650119685 135.89377881806408
  endloop
endfacet
facet normal 0.9999913021169932 0.004170814112449775 3.7600474044972835e-16
  outer loop
    vertex 81.49206596502725 203.7108650119685 135.89377881806408
    vertex 81.46693703512251 206.3957630365314 130.03762972275553
    vertex 81.49206596502725 204.12087263529418 136.06360953632196
  endloop
endfacet
facet normal 0.9999913021169932 0.004170814112449775 3.7600474044972835e-16
  outer loop
    vertex 81.49206596502725 204.12087263529418 136.06360953632196
    vertex 81.46693703512251 206.3957630365314 130.03762972275553
    vertex 81.49206596502725 204.47295416331133 136.33377119473838
  endloop
endfacet
facet normal 0.9999913021169932 0.004170814112449775 3.7600474044972835e-16
  outer loop
    vertex 81.49206596502725 204.47295416331133 136.33377119473838
    vertex 81.46693703512251 206.3957630365314 130.03762972275553
    vertex 81.49206596502725 204.74311582172774 136.6858527227555
  endloop
endfacet
facet normal 0.9999913021169932 0.004170814112449775 3.7600474044972835e-16
  outer loop
    vertex 81.49206596502725 204.74311582172774 136.6858527227555
    vertex 81.46693703512251 206.3957630365314 130.03762972275553
    vertex 81.49206596502725 204.91294653998565 137.09586034608122
  endloop
endfacet
facet normal 0.9999913021169932 0.004170814112449775 3.7600474044972835e-16
  outer loop
    vertex 81.49206596502725 204.91294653998565 137.09586034608122
    vertex 81.46693703512251 206.3957630365314 130.03762972275553
    vertex 81.49206596502725 204.97087263529423 137.53585272275552
  endloop
endfacet
facet normal 0.9999913021169932 0.004170814112449775 3.7600474044972835e-16
  outer loop
    vertex 81.49206596502725 200.37086941654434 145.0358527227555
    vertex 81.49206596502725 201.79862944886062 138.38585272275554
    vertex 81.46693703512251 206.3957630365314 145.0358527227555
  endloop
endfacet
facet normal 0.9999913021169932 0.004170814112449775 3.7600474044972835e-16
  outer loop
    vertex 81.49206596502725 201.79862944886062 138.38585272275554
    vertex 81.49206596502725 200.37086941654434 145.0358527227555
    vertex 81.49206596502725 201.62879873060277 137.97584509942982
  endloop
endfacet
facet normal 0.9999913021169932 0.004170814112449775 3.7600474044972835e-16
  outer loop
    vertex 81.49206596502725 201.62879873060277 137.97584509942982
    vertex 81.49206596502725 200.37086941654434 145.0358527227555
    vertex 81.49206596502725 201.5708726352942 137.53585272275552
  endloop
endfacet
facet normal 0.9999913021169932 0.004170814112449775 3.7600474044972835e-16
  outer loop
    vertex 81.46693703512251 206.3957630365314 145.0358527227555
    vertex 81.49206596502725 201.79862944886062 138.38585272275554
    vertex 81.49206596502725 202.06879110727706 138.73793425077267
  endloop
endfacet
facet normal 0.9999913021169932 0.004170814112449775 3.7600474044972835e-16
  outer loop
    vertex 81.46693703512251 206.3957630365314 145.0358527227555
    vertex 81.49206596502725 202.06879110727706 138.73793425077267
    vertex 81.49206596502725 202.4208726352942 139.00809590918908
  endloop
endfacet
facet normal 0.9999913021169932 0.004170814112449775 3.7600474044972835e-16
  outer loop
    vertex 81.46693703512251 206.3957630365314 145.0358527227555
    vertex 81.49206596502725 202.4208726352942 139.00809590918908
    vertex 81.49206596502725 202.8308802586199 139.17792662744696
  endloop
endfacet
facet normal 0.9999913021169932 0.004170814112449775 3.7600474044972835e-16
  outer loop
    vertex 81.46693703512251 206.3957630365314 145.0358527227555
    vertex 81.49206596502725 202.8308802586199 139.17792662744696
    vertex 81.49206596502725 203.2708726352942 139.23585272275554
  endloop
endfacet
facet normal 0.9999913021169932 0.004170814112449775 3.7600474044972835e-16
  outer loop
    vertex 81.46693703512251 206.3957630365314 145.0358527227555
    vertex 81.49206596502725 203.2708726352942 139.23585272275554
    vertex 81.49206596502725 203.7108650119685 139.17792662744694
  endloop
endfacet
facet normal 0.9999913021169932 0.004170814112449775 3.7600474044972835e-16
  outer loop
    vertex 81.46693703512251 206.3957630365314 145.0358527227555
    vertex 81.49206596502725 203.7108650119685 139.17792662744694
    vertex 81.49206596502725 204.12087263529423 139.00809590918908
  endloop
endfacet
facet normal 0.9999913021169932 0.004170814112449775 3.7600474044972835e-16
  outer loop
    vertex 81.46693703512251 206.3957630365314 145.0358527227555
    vertex 81.49206596502725 204.12087263529423 139.00809590918908
    vertex 81.49206596502725 204.47295416331133 138.73793425077267
  endloop
endfacet
facet normal 0.9999913021169932 0.004170814112449775 3.7600474044972835e-16
  outer loop
    vertex 81.46693703512251 206.3957630365314 145.0358527227555
    vertex 81.49206596502725 204.47295416331133 138.73793425077267
    vertex 81.49206596502725 204.74311582172774 138.38585272275554
  endloop
endfacet
facet normal 0.9999913021169932 0.004170814112449775 3.7600474044972835e-16
  outer loop
    vertex 81.46693703512251 206.3957630365314 145.0358527227555
    vertex 81.49206596502725 204.74311582172774 138.38585272275554
    vertex 81.49206596502725 204.91294653998565 137.97584509942982
  endloop
endfacet
facet normal 0.9999913021169932 0.004170814112449775 3.7600474044972835e-16
  outer loop
    vertex 81.46693703512251 206.3957630365314 145.0358527227555
    vertex 81.49206596502725 204.91294653998565 137.97584509942982
    vertex 81.49206596502725 204.97087263529423 137.53585272275552
  endloop
endfacet
facet normal 0.9999913021169932 0.004170814112449775 3.7600474044972835e-16
  outer loop
    vertex 81.46693703512251 206.3957630365314 145.0358527227555
    vertex 81.49206596502725 204.97087263529423 137.53585272275552
    vertex 81.46693703512251 206.3957630365314 130.03762972275553
  endloop
endfacet
facet normal -0.7071067811865476 0.0 0.7071067811865476
  outer loop
    vertex 77.49206596502725 220.37086941654434 145.0358527227555
    vertex 75.49206596502725 200.37086941654434 143.03585272275552
    vertex 77.49206596502725 200.37086941654434 145.0358527227555
  endloop
endfacet
facet normal -0.7071067811865476 0.0 0.7071067811865476
  outer loop
    vertex 75.49206596502725 200.37086941654434 143.03585272275552
    vertex 77.49206596502725 220.37086941654434 145.0358527227555
    vertex 75.49206596502725 220.37086941654434 143.03585272275552
  endloop
endfacet
facet normal 0.0 1.0 0.0
  outer loop
    vertex 75.49206596502725 220.37086941654434 132.03585272275552
    vertex 81.49206596502725 220.37086941654434 130.03585272275552
    vertex 77.49206596502725 220.37086941654434 130.03585272275552
  endloop
endfacet
facet normal 0.0 1.0 0.0
  outer loop
    vertex 81.49206596502725 220.37086941654434 130.03585272275552
    vertex 75.49206596502725 220.37086941654434 132.03585272275552
    vertex 81.49206596502725 220.37086941654434 145.0358527227555
  endloop
endfacet
facet normal 0.0 1.0 0.0
  outer loop
    vertex 81.49206596502725 220.37086941654434 145.0358527227555
    vertex 75.49206596502725 220.37086941654434 132.03585272275552
    vertex 75.49206596502725 220.37086941654434 143.03585272275552
  endloop
endfacet
facet normal 0.0 1.0 0.0
  outer loop
    vertex 81.49206596502725 220.37086941654434 145.0358527227555
    vertex 75.49206596502725 220.37086941654434 143.03585272275552
    vertex 77.49206596502725 220.37086941654434 145.0358527227555
  endloop
endfacet
facet normal 0.0 0.9914448613738136 -0.130526192220028
  outer loop
    vertex 75.49206596502725 215.82879873060273 137.97584509942982
    vertex 81.49206596502722 215.77087263529415 137.53585272275552
    vertex 75.49206596502725 215.77087263529415 137.53585272275552
  endloop
endfacet
facet normal 0.0 0.9914448613738136 -0.130526192220028
  outer loop
    vertex 81.49206596502722 215.77087263529415 137.53585272275552
    vertex 75.49206596502725 215.82879873060273 137.97584509942982
    vertex 81.49206596502722 215.82879873060273 137.97584509942982
  endloop
endfacet
facet normal 0.0 0.9238795325112626 -0.382683432365148
  outer loop
    vertex 75.49206596502725 215.99862944886064 138.38585272275554
    vertex 81.49206596502722 215.82879873060273 137.97584509942982
    vertex 75.49206596502725 215.82879873060273 137.97584509942982
  endloop
endfacet
facet normal 0.0 0.9238795325112626 -0.382683432365148
  outer loop
    vertex 81.49206596502722 215.82879873060273 137.97584509942982
    vertex 75.49206596502725 215.99862944886064 138.38585272275554
    vertex 81.49206596502722 215.99862944886064 138.38585272275554
  endloop
endfacet
facet normal 0.0 0.7933533402912462 -0.6087614290087066
  outer loop
    vertex 75.49206596502725 216.26879110727702 138.73793425077267
    vertex 81.49206596502722 215.99862944886064 138.38585272275554
    vertex 75.49206596502725 215.99862944886064 138.38585272275554
  endloop
endfacet
facet normal 0.0 0.7933533402912462 -0.6087614290087066
  outer loop
    vertex 81.49206596502722 215.99862944886064 138.38585272275554
    vertex 75.49206596502725 216.26879110727702 138.73793425077267
    vertex 81.49206596502722 216.26879110727702 138.73793425077267
  endloop
endfacet
facet normal 0.0 0.6087614290087139 -0.7933533402912403
  outer loop
    vertex 81.49206596502722 216.62087263529418 139.00809590918908
    vertex 75.49206596502725 216.26879110727702 138.73793425077267
    vertex 75.49206596502725 216.62087263529418 139.00809590918908
  endloop
endfacet
facet normal 0.0 0.6087614290087139 -0.7933533402912403
  outer loop
    vertex 75.49206596502725 216.26879110727702 138.73793425077267
    vertex 81.49206596502722 216.62087263529418 139.00809590918908
    vertex 81.49206596502722 216.26879110727702 138.73793425077267
  endloop
endfacet
facet normal 0.0 0.3826834323651406 -0.9238795325112659
  outer loop
    vertex 81.49206596502722 217.03088025861987 139.17792662744696
    vertex 75.49206596502725 216.62087263529418 139.00809590918908
    vertex 75.49206596502725 217.03088025861987 139.17792662744696
  endloop
endfacet
facet normal 0.0 0.3826834323651406 -0.9238795325112659
  outer loop
    vertex 75.49206596502725 216.62087263529418 139.00809590918908
    vertex 81.49206596502722 217.03088025861987 139.17792662744696
    vertex 81.49206596502722 216.62087263529418 139.00809590918908
  endloop
endfacet
facet normal 0.0 0.13052619222002143 -0.9914448613738144
  outer loop
    vertex 81.49206596502722 217.47087263529417 139.23585272275554
    vertex 75.49206596502725 217.03088025861987 139.17792662744696
    vertex 75.49206596502725 217.47087263529417 139.23585272275554
  endloop
endfacet
facet normal 0.0 0.13052619222002143 -0.9914448613738144
  outer loop
    vertex 75.49206596502725 217.03088025861987 139.17792662744696
    vertex 81.49206596502722 217.47087263529417 139.23585272275554
    vertex 81.49206596502722 217.03088025861987 139.17792662744696
  endloop
endfacet
facet normal -0.0 -0.1305261922200714 -0.9914448613738079
  outer loop
    vertex 81.49206596502722 217.9108650119685 139.17792662744694
    vertex 75.49206596502725 217.47087263529417 139.23585272275554
    vertex 75.49206596502725 217.9108650119685 139.17792662744694
  endloop
endfacet
facet normal -0.0 -0.1305261922200714 -0.9914448613738079
  outer loop
    vertex 75.49206596502725 217.47087263529417 139.23585272275554
    vertex 81.49206596502722 217.9108650119685 139.17792662744694
    vertex 81.49206596502722 217.47087263529417 139.23585272275554
  endloop
endfacet
facet normal -0.0 -0.38268343236506114 -0.9238795325112985
  outer loop
    vertex 81.49206596502722 218.3208726352942 139.00809590918908
    vertex 75.49206596502725 217.9108650119685 139.17792662744694
    vertex 75.49206596502725 218.3208726352942 139.00809590918908
  endloop
endfacet
facet normal -0.0 -0.38268343236506114 -0.9238795325112985
  outer loop
    vertex 75.49206596502725 217.9108650119685 139.17792662744694
    vertex 81.49206596502722 218.3208726352942 139.00809590918908
    vertex 81.49206596502722 217.9108650119685 139.17792662744694
  endloop
endfacet
facet normal -0.0 -0.608761429008763 -0.7933533402912026
  outer loop
    vertex 81.49206596502722 218.67295416331132 138.73793425077267
    vertex 75.49206596502725 218.3208726352942 139.00809590918908
    vertex 75.49206596502725 218.67295416331132 138.73793425077267
  endloop
endfacet
facet normal -0.0 -0.608761429008763 -0.7933533402912026
  outer loop
    vertex 75.49206596502725 218.3208726352942 139.00809590918908
    vertex 81.49206596502722 218.67295416331132 138.73793425077267
    vertex 81.49206596502722 218.3208726352942 139.00809590918908
  endloop
endfacet
facet normal -0.0 -0.7933533402912462 -0.6087614290087066
  outer loop
    vertex 81.49206596502722 218.67295416331132 138.73793425077267
    vertex 75.49206596502725 218.94311582172773 138.38585272275554
    vertex 81.49206596502722 218.94311582172773 138.38585272275554
  endloop
endfacet
facet normal -0.0 -0.7933533402912462 -0.6087614290087066
  outer loop
    vertex 75.49206596502725 218.94311582172773 138.38585272275554
    vertex 81.49206596502722 218.67295416331132 138.73793425077267
    vertex 75.49206596502725 218.67295416331132 138.73793425077267
  endloop
endfacet
facet normal -0.0 -0.9238795325112626 -0.382683432365148
  outer loop
    vertex 81.49206596502722 218.94311582172773 138.38585272275554
    vertex 75.49206596502725 219.11294653998561 137.97584509942982
    vertex 81.49206596502722 219.11294653998561 137.97584509942982
  endloop
endfacet
facet normal -0.0 -0.9238795325112626 -0.382683432365148
  outer loop
    vertex 75.49206596502725 219.11294653998561 137.97584509942982
    vertex 81.49206596502722 218.94311582172773 138.38585272275554
    vertex 75.49206596502725 218.94311582172773 138.38585272275554
  endloop
endfacet
facet normal -0.0 -0.9914448613738136 -0.130526192220028
  outer loop
    vertex 81.49206596502722 219.11294653998561 137.97584509942982
    vertex 75.49206596502725 219.1708726352942 137.53585272275552
    vertex 81.49206596502722 219.1708726352942 137.53585272275552
  endloop
endfacet
facet normal -0.0 -0.9914448613738136 -0.130526192220028
  outer loop
    vertex 75.49206596502725 219.1708726352942 137.53585272275552
    vertex 81.49206596502722 219.11294653998561 137.97584509942982
    vertex 75.49206596502725 219.11294653998561 137.97584509942982
  endloop
endfacet
facet normal 0.0 -0.9914448613738136 0.130526192220028
  outer loop
    vertex 81.49206596502722 219.1708726352942 137.53585272275552
    vertex 75.49206596502725 219.11294653998561 137.09586034608122
    vertex 81.49206596502722 219.11294653998561 137.09586034608122
  endloop
endfacet
facet normal 0.0 -0.9914448613738136 0.130526192220028
  outer loop
    vertex 75.49206596502725 219.11294653998561 137.09586034608122
    vertex 81.49206596502722 219.1708726352942 137.53585272275552
    vertex 75.49206596502725 219.1708726352942 137.53585272275552
  endloop
endfacet
facet normal 0.0 -0.9238795325112626 0.382683432365148
  outer loop
    vertex 81.49206596502722 219.11294653998561 137.09586034608122
    vertex 75.49206596502725 218.94311582172773 136.6858527227555
    vertex 81.49206596502722 218.94311582172773 136.6858527227555
  endloop
endfacet
facet normal 0.0 -0.9238795325112626 0.382683432365148
  outer loop
    vertex 75.49206596502725 218.94311582172773 136.6858527227555
    vertex 81.49206596502722 219.11294653998561 137.09586034608122
    vertex 75.49206596502725 219.11294653998561 137.09586034608122
  endloop
endfacet
facet normal 0.0 -0.7933533402912462 0.6087614290087066
  outer loop
    vertex 81.49206596502722 218.94311582172773 136.6858527227555
    vertex 75.49206596502725 218.67295416331132 136.33377119473838
    vertex 81.49206596502722 218.67295416331132 136.33377119473838
  endloop
endfacet
facet normal 0.0 -0.7933533402912462 0.6087614290087066
  outer loop
    vertex 75.49206596502725 218.67295416331132 136.33377119473838
    vertex 81.49206596502722 218.94311582172773 136.6858527227555
    vertex 75.49206596502725 218.94311582172773 136.6858527227555
  endloop
endfacet
facet normal 0.0 -0.6087614290087139 0.7933533402912403
  outer loop
    vertex 81.49206596502722 218.32087263529417 136.06360953632196
    vertex 75.49206596502725 218.67295416331132 136.33377119473838
    vertex 75.49206596502725 218.32087263529417 136.06360953632196
  endloop
endfacet
facet normal 0.0 -0.6087614290087139 0.7933533402912403
  outer loop
    vertex 75.49206596502725 218.67295416331132 136.33377119473838
    vertex 81.49206596502722 218.32087263529417 136.06360953632196
    vertex 81.49206596502722 218.67295416331132 136.33377119473838
  endloop
endfacet
facet normal 0.0 -0.3826834323651406 0.9238795325112659
  outer loop
    vertex 81.49206596502722 217.9108650119685 135.89377881806408
    vertex 75.49206596502725 218.32087263529417 136.06360953632196
    vertex 75.49206596502725 217.9108650119685 135.89377881806408
  endloop
endfacet
facet normal 0.0 -0.3826834323651406 0.9238795325112659
  outer loop
    vertex 75.49206596502725 218.32087263529417 136.06360953632196
    vertex 81.49206596502722 217.9108650119685 135.89377881806408
    vertex 81.49206596502722 218.32087263529417 136.06360953632196
  endloop
endfacet
facet normal 0.0 -0.13052619222002143 0.9914448613738144
  outer loop
    vertex 81.49206596502722 217.47087263529417 135.8358527227555
    vertex 75.49206596502725 217.9108650119685 135.89377881806408
    vertex 75.49206596502725 217.47087263529417 135.8358527227555
  endloop
endfacet
facet normal 0.0 -0.13052619222002143 0.9914448613738144
  outer loop
    vertex 75.49206596502725 217.9108650119685 135.89377881806408
    vertex 81.49206596502722 217.47087263529417 135.8358527227555
    vertex 81.49206596502722 217.9108650119685 135.89377881806408
  endloop
endfacet
facet normal 0.0 0.1305261922200714 0.9914448613738079
  outer loop
    vertex 81.49206596502722 217.03088025861987 135.8937788180641
    vertex 75.49206596502725 217.47087263529417 135.8358527227555
    vertex 75.49206596502725 217.03088025861987 135.8937788180641
  endloop
endfacet
facet normal 0.0 0.1305261922200714 0.9914448613738079
  outer loop
    vertex 75.49206596502725 217.47087263529417 135.8358527227555
    vertex 81.49206596502722 217.03088025861987 135.8937788180641
    vertex 81.49206596502722 217.47087263529417 135.8358527227555
  endloop
endfacet
facet normal 0.0 0.38268343236506114 0.9238795325112985
  outer loop
    vertex 81.49206596502722 216.62087263529415 136.06360953632196
    vertex 75.49206596502725 217.03088025861987 135.8937788180641
    vertex 75.49206596502725 216.62087263529415 136.06360953632196
  endloop
endfacet
facet normal 0.0 0.38268343236506114 0.9238795325112985
  outer loop
    vertex 75.49206596502725 217.03088025861987 135.8937788180641
    vertex 81.49206596502722 216.62087263529415 136.06360953632196
    vertex 81.49206596502722 217.03088025861987 135.8937788180641
  endloop
endfacet
facet normal 0.0 0.608761429008763 0.7933533402912026
  outer loop
    vertex 81.49206596502722 216.26879110727702 136.33377119473838
    vertex 75.49206596502725 216.62087263529415 136.06360953632196
    vertex 75.49206596502725 216.26879110727702 136.33377119473838
  endloop
endfacet
facet normal 0.0 0.608761429008763 0.7933533402912026
  outer loop
    vertex 75.49206596502725 216.62087263529415 136.06360953632196
    vertex 81.49206596502722 216.26879110727702 136.33377119473838
    vertex 81.49206596502722 216.62087263529415 136.06360953632196
  endloop
endfacet
facet normal 0.0 0.7933533402912462 0.6087614290087066
  outer loop
    vertex 75.49206596502725 215.99862944886064 136.6858527227555
    vertex 81.49206596502722 216.26879110727702 136.33377119473838
    vertex 75.49206596502725 216.26879110727702 136.33377119473838
  endloop
endfacet
facet normal 0.0 0.7933533402912462 0.6087614290087066
  outer loop
    vertex 81.49206596502722 216.26879110727702 136.33377119473838
    vertex 75.49206596502725 215.99862944886064 136.6858527227555
    vertex 81.49206596502722 215.99862944886064 136.6858527227555
  endloop
endfacet
facet normal 0.0 0.9238795325112626 0.382683432365148
  outer loop
    vertex 75.49206596502725 215.82879873060273 137.09586034608122
    vertex 81.49206596502722 215.99862944886064 136.6858527227555
    vertex 75.49206596502725 215.99862944886064 136.6858527227555
  endloop
endfacet
facet normal 0.0 0.9238795325112626 0.382683432365148
  outer loop
    vertex 81.49206596502722 215.99862944886064 136.6858527227555
    vertex 75.49206596502725 215.82879873060273 137.09586034608122
    vertex 81.49206596502722 215.82879873060273 137.09586034608122
  endloop
endfacet
facet normal 0.0 0.9914448613738136 0.130526192220028
  outer loop
    vertex 75.49206596502725 215.77087263529415 137.53585272275552
    vertex 81.49206596502722 215.82879873060273 137.09586034608122
    vertex 75.49206596502725 215.82879873060273 137.09586034608122
  endloop
endfacet
facet normal 0.0 0.9914448613738136 0.130526192220028
  outer loop
    vertex 81.49206596502722 215.82879873060273 137.09586034608122
    vertex 75.49206596502725 215.77087263529415 137.53585272275552
    vertex 81.49206596502722 215.77087263529415 137.53585272275552
  endloop
endfacet
facet normal 0.0 0.130526192220028 -0.9914448613738136
  outer loop
    vertex 81.49206596502725 203.2708726352942 139.23585272275554
    vertex 75.49206596502725 202.8308802586199 139.17792662744696
    vertex 75.49206596502725 203.2708726352942 139.23585272275554
  endloop
endfacet
facet normal 0.0 0.130526192220028 -0.9914448613738136
  outer loop
    vertex 75.49206596502725 202.8308802586199 139.17792662744696
    vertex 81.49206596502725 203.2708726352942 139.23585272275554
    vertex 81.49206596502725 202.8308802586199 139.17792662744696
  endloop
endfacet
facet normal -0.0 -0.1305261922200714 -0.9914448613738079
  outer loop
    vertex 81.49206596502725 203.7108650119685 139.17792662744694
    vertex 75.49206596502725 203.2708726352942 139.23585272275554
    vertex 75.49206596502725 203.7108650119685 139.17792662744694
  endloop
endfacet
facet normal -0.0 -0.1305261922200714 -0.9914448613738079
  outer loop
    vertex 75.49206596502725 203.2708726352942 139.23585272275554
    vertex 81.49206596502725 203.7108650119685 139.17792662744694
    vertex 81.49206596502725 203.2708726352942 139.23585272275554
  endloop
endfacet
facet normal -0.0 -0.38268343236506114 -0.9238795325112985
  outer loop
    vertex 81.49206596502725 204.12087263529423 139.00809590918908
    vertex 75.49206596502725 203.7108650119685 139.17792662744694
    vertex 75.49206596502725 204.12087263529423 139.00809590918908
  endloop
endfacet
facet normal -0.0 -0.38268343236506114 -0.9238795325112985
  outer loop
    vertex 75.49206596502725 203.7108650119685 139.17792662744694
    vertex 81.49206596502725 204.12087263529423 139.00809590918908
    vertex 81.49206596502725 203.7108650119685 139.17792662744694
  endloop
endfacet
facet normal -0.0 -0.608761429008763 -0.7933533402912026
  outer loop
    vertex 81.49206596502725 204.47295416331133 138.73793425077267
    vertex 75.49206596502725 204.12087263529423 139.00809590918908
    vertex 75.49206596502725 204.47295416331133 138.73793425077267
  endloop
endfacet
facet normal -0.0 -0.608761429008763 -0.7933533402912026
  outer loop
    vertex 75.49206596502725 204.12087263529423 139.00809590918908
    vertex 81.49206596502725 204.47295416331133 138.73793425077267
    vertex 81.49206596502725 204.12087263529423 139.00809590918908
  endloop
endfacet
facet normal -0.0 -0.7933533402912462 -0.6087614290087066
  outer loop
    vertex 81.49206596502725 204.47295416331133 138.73793425077267
    vertex 75.49206596502725 204.74311582172774 138.38585272275554
    vertex 81.49206596502725 204.74311582172774 138.38585272275554
  endloop
endfacet
facet normal -0.0 -0.7933533402912462 -0.6087614290087066
  outer loop
    vertex 75.49206596502725 204.74311582172774 138.38585272275554
    vertex 81.49206596502725 204.47295416331133 138.73793425077267
    vertex 75.49206596502725 204.47295416331133 138.73793425077267
  endloop
endfacet
facet normal -0.0 -0.9238795325112626 -0.382683432365148
  outer loop
    vertex 81.49206596502725 204.74311582172774 138.38585272275554
    vertex 75.49206596502725 204.91294653998565 137.97584509942982
    vertex 81.49206596502725 204.91294653998565 137.97584509942982
  endloop
endfacet
facet normal -0.0 -0.9238795325112626 -0.382683432365148
  outer loop
    vertex 75.49206596502725 204.91294653998565 137.97584509942982
    vertex 81.49206596502725 204.74311582172774 138.38585272275554
    vertex 75.49206596502725 204.74311582172774 138.38585272275554
  endloop
endfacet
facet normal -0.0 -0.9914448613738136 -0.130526192220028
  outer loop
    vertex 81.49206596502725 204.91294653998565 137.97584509942982
    vertex 75.49206596502725 204.97087263529423 137.53585272275552
    vertex 81.49206596502725 204.97087263529423 137.53585272275552
  endloop
endfacet
facet normal -0.0 -0.9914448613738136 -0.130526192220028
  outer loop
    vertex 75.49206596502725 204.97087263529423 137.53585272275552
    vertex 81.49206596502725 204.91294653998565 137.97584509942982
    vertex 75.49206596502725 204.91294653998565 137.97584509942982
  endloop
endfacet
facet normal 0.0 -0.9914448613738136 0.130526192220028
  outer loop
    vertex 81.49206596502725 204.97087263529423 137.53585272275552
    vertex 75.49206596502725 204.91294653998565 137.09586034608122
    vertex 81.49206596502725 204.91294653998565 137.09586034608122
  endloop
endfacet
facet normal 0.0 -0.9914448613738136 0.130526192220028
  outer loop
    vertex 75.49206596502725 204.91294653998565 137.09586034608122
    vertex 81.49206596502725 204.97087263529423 137.53585272275552
    vertex 75.49206596502725 204.97087263529423 137.53585272275552
  endloop
endfacet
facet normal 0.0 -0.9238795325112626 0.382683432365148
  outer loop
    vertex 81.49206596502725 204.91294653998565 137.09586034608122
    vertex 75.49206596502725 204.74311582172774 136.6858527227555
    vertex 81.49206596502725 204.74311582172774 136.6858527227555
  endloop
endfacet
facet normal 0.0 -0.9238795325112626 0.382683432365148
  outer loop
    vertex 75.49206596502725 204.74311582172774 136.6858527227555
    vertex 81.49206596502725 204.91294653998565 137.09586034608122
    vertex 75.49206596502725 204.91294653998565 137.09586034608122
  endloop
endfacet
facet normal 0.0 -0.7933533402912462 0.6087614290087066
  outer loop
    vertex 81.49206596502725 204.74311582172774 136.6858527227555
    vertex 75.49206596502725 204.47295416331133 136.33377119473838
    vertex 81.49206596502725 204.47295416331133 136.33377119473838
  endloop
endfacet
facet normal 0.0 -0.7933533402912462 0.6087614290087066
  outer loop
    vertex 75.49206596502725 204.47295416331133 136.33377119473838
    vertex 81.49206596502725 204.74311582172774 136.6858527227555
    vertex 75.49206596502725 204.74311582172774 136.6858527227555
  endloop
endfacet
facet normal 0.0 -0.6087614290087139 0.7933533402912403
  outer loop
    vertex 81.49206596502725 204.12087263529418 136.06360953632196
    vertex 75.49206596502725 204.47295416331133 136.33377119473838
    vertex 75.49206596502725 204.12087263529418 136.06360953632196
  endloop
endfacet
facet normal 0.0 -0.6087614290087139 0.7933533402912403
  outer loop
    vertex 75.49206596502725 204.47295416331133 136.33377119473838
    vertex 81.49206596502725 204.12087263529418 136.06360953632196
    vertex 81.49206596502725 204.47295416331133 136.33377119473838
  endloop
endfacet
facet normal 0.0 -0.3826834323651406 0.9238795325112659
  outer loop
    vertex 81.49206596502725 203.7108650119685 135.89377881806408
    vertex 75.49206596502725 204.12087263529418 136.06360953632196
    vertex 75.49206596502725 203.7108650119685 135.89377881806408
  endloop
endfacet
facet normal 0.0 -0.3826834323651406 0.9238795325112659
  outer loop
    vertex 75.49206596502725 204.12087263529418 136.06360953632196
    vertex 81.49206596502725 203.7108650119685 135.89377881806408
    vertex 81.49206596502725 204.12087263529418 136.06360953632196
  endloop
endfacet
facet normal 0.0 -0.13052619222002143 0.9914448613738144
  outer loop
    vertex 81.49206596502725 203.2708726352942 135.8358527227555
    vertex 75.49206596502725 203.7108650119685 135.89377881806408
    vertex 75.49206596502725 203.2708726352942 135.8358527227555
  endloop
endfacet
facet normal 0.0 -0.13052619222002143 0.9914448613738144
  outer loop
    vertex 75.49206596502725 203.7108650119685 135.89377881806408
    vertex 81.49206596502725 203.2708726352942 135.8358527227555
    vertex 81.49206596502725 203.7108650119685 135.89377881806408
  endloop
endfacet
facet normal 0.0 0.130526192220078 0.991444861373807
  outer loop
    vertex 81.49206596502725 202.8308802586199 135.8937788180641
    vertex 75.49206596502725 203.2708726352942 135.8358527227555
    vertex 75.49206596502725 202.8308802586199 135.8937788180641
  endloop
endfacet
facet normal 0.0 0.130526192220078 0.991444861373807
  outer loop
    vertex 75.49206596502725 203.2708726352942 135.8358527227555
    vertex 81.49206596502725 202.8308802586199 135.8937788180641
    vertex 81.49206596502725 203.2708726352942 135.8358527227555
  endloop
endfacet
facet normal 0.0 0.38268343236506114 0.9238795325112985
  outer loop
    vertex 81.49206596502725 202.4208726352942 136.06360953632196
    vertex 75.49206596502725 202.8308802586199 135.8937788180641
    vertex 75.49206596502725 202.4208726352942 136.06360953632196
  endloop
endfacet
facet normal 0.0 0.38268343236506114 0.9238795325112985
  outer loop
    vertex 75.49206596502725 202.8308802586199 135.8937788180641
    vertex 81.49206596502725 202.4208726352942 136.06360953632196
    vertex 81.49206596502725 202.8308802586199 135.8937788180641
  endloop
endfacet
facet normal 0.0 0.6087614290087384 0.7933533402912215
  outer loop
    vertex 81.49206596502725 202.06879110727706 136.33377119473838
    vertex 75.49206596502725 202.4208726352942 136.06360953632196
    vertex 75.49206596502725 202.06879110727706 136.33377119473838
  endloop
endfacet
facet normal 0.0 0.6087614290087384 0.7933533402912215
  outer loop
    vertex 75.49206596502725 202.4208726352942 136.06360953632196
    vertex 81.49206596502725 202.06879110727706 136.33377119473838
    vertex 81.49206596502725 202.4208726352942 136.06360953632196
  endloop
endfacet
facet normal 0.0 0.7933533402912215 0.6087614290087384
  outer loop
    vertex 75.49206596502725 201.79862944886062 136.6858527227555
    vertex 81.49206596502725 202.06879110727706 136.33377119473838
    vertex 75.49206596502725 202.06879110727706 136.33377119473838
  endloop
endfacet
facet normal 0.0 0.7933533402912215 0.6087614290087384
  outer loop
    vertex 81.49206596502725 202.06879110727706 136.33377119473838
    vertex 75.49206596502725 201.79862944886062 136.6858527227555
    vertex 81.49206596502725 201.79862944886062 136.6858527227555
  endloop
endfacet
facet normal 0.0 0.9238795325112807 0.38268343236510466
  outer loop
    vertex 75.49206596502725 201.62879873060277 137.09586034608122
    vertex 81.49206596502725 201.79862944886062 136.6858527227555
    vertex 75.49206596502725 201.79862944886062 136.6858527227555
  endloop
endfacet
facet normal 0.0 0.9238795325112807 0.38268343236510466
  outer loop
    vertex 81.49206596502725 201.79862944886062 136.6858527227555
    vertex 75.49206596502725 201.62879873060277 137.09586034608122
    vertex 81.49206596502725 201.62879873060277 137.09586034608122
  endloop
endfacet
facet normal 0.0 0.9914448613738136 0.130526192220028
  outer loop
    vertex 75.49206596502725 201.5708726352942 137.53585272275552
    vertex 81.49206596502725 201.62879873060277 137.09586034608122
    vertex 75.49206596502725 201.62879873060277 137.09586034608122
  endloop
endfacet
facet normal 0.0 0.9914448613738136 0.130526192220028
  outer loop
    vertex 81.49206596502725 201.62879873060277 137.09586034608122
    vertex 75.49206596502725 201.5708726352942 137.53585272275552
    vertex 81.49206596502725 201.5708726352942 137.53585272275552
  endloop
endfacet
facet normal 0.0 0.991444861373807 -0.130526192220078
  outer loop
    vertex 75.49206596502725 201.62879873060277 137.97584509942982
    vertex 81.49206596502725 201.5708726352942 137.53585272275552
    vertex 75.49206596502725 201.5708726352942 137.53585272275552
  endloop
endfacet
facet normal 0.0 0.991444861373807 -0.130526192220078
  outer loop
    vertex 81.49206596502725 201.5708726352942 137.53585272275552
    vertex 75.49206596502725 201.62879873060277 137.97584509942982
    vertex 81.49206596502725 201.62879873060277 137.97584509942982
  endloop
endfacet
facet normal 0.0 0.9238795325112985 -0.38268343236506114
  outer loop
    vertex 75.49206596502725 201.79862944886062 138.38585272275554
    vertex 81.49206596502725 201.62879873060277 137.97584509942982
    vertex 75.49206596502725 201.62879873060277 137.97584509942982
  endloop
endfacet
facet normal 0.0 0.9238795325112985 -0.38268343236506114
  outer loop
    vertex 81.49206596502725 201.62879873060277 137.97584509942982
    vertex 75.49206596502725 201.79862944886062 138.38585272275554
    vertex 81.49206596502725 201.79862944886062 138.38585272275554
  endloop
endfacet
facet normal 0.0 0.7933533402912215 -0.6087614290087384
  outer loop
    vertex 75.49206596502725 202.06879110727706 138.73793425077267
    vertex 81.49206596502725 201.79862944886062 138.38585272275554
    vertex 75.49206596502725 201.79862944886062 138.38585272275554
  endloop
endfacet
facet normal 0.0 0.7933533402912215 -0.6087614290087384
  outer loop
    vertex 81.49206596502725 201.79862944886062 138.38585272275554
    vertex 75.49206596502725 202.06879110727706 138.73793425077267
    vertex 81.49206596502725 202.06879110727706 138.73793425077267
  endloop
endfacet
facet normal 0.0 0.6087614290087384 -0.7933533402912215
  outer loop
    vertex 81.49206596502725 202.4208726352942 139.00809590918908
    vertex 75.49206596502725 202.06879110727706 138.73793425077267
    vertex 75.49206596502725 202.4208726352942 139.00809590918908
  endloop
endfacet
facet normal 0.0 0.6087614290087384 -0.7933533402912215
  outer loop
    vertex 75.49206596502725 202.06879110727706 138.73793425077267
    vertex 81.49206596502725 202.4208726352942 139.00809590918908
    vertex 81.49206596502725 202.06879110727706 138.73793425077267
  endloop
endfacet
facet normal 0.0 0.38268343236510466 -0.9238795325112807
  outer loop
    vertex 81.49206596502725 202.8308802586199 139.17792662744696
    vertex 75.49206596502725 202.4208726352942 139.00809590918908
    vertex 75.49206596502725 202.8308802586199 139.17792662744696
  endloop
endfacet
facet normal 0.0 0.38268343236510466 -0.9238795325112807
  outer loop
    vertex 75.49206596502725 202.4208726352942 139.00809590918908
    vertex 81.49206596502725 202.8308802586199 139.17792662744696
    vertex 81.49206596502725 202.4208726352942 139.00809590918908
  endloop
endfacet
facet normal 0.0 0.0 1.0
  outer loop
    vertex 77.49206596502725 200.37086941654434 145.0358527227555
    vertex 78.3920659650272 210.3708694165446 145.0358527227555
    vertex 77.49206596502725 220.37086941654434 145.0358527227555
  endloop
endfacet
facet normal 0.0 0.0 1.0
  outer loop
    vertex 78.3920659650272 210.3708694165446 145.0358527227555
    vertex 77.49206596502725 200.37086941654434 145.0358527227555
    vertex 78.49057267097282 209.47677296411376 145.0358527227555
  endloop
endfacet
facet normal 0.0 0.0 1.0
  outer loop
    vertex 78.49057267097282 209.47677296411376 145.0358527227555
    vertex 77.49206596502725 200.37086941654434 145.0358527227555
    vertex 81.49206596502725 200.37086941654434 145.0358527227555
  endloop
endfacet
facet normal 0.0 0.0 1.0
  outer loop
    vertex 78.49057267097282 209.47677296411376 145.0358527227555
    vertex 81.49206596502725 200.37086941654434 145.0358527227555
    vertex 78.78136727846044 208.62556762248244 145.0358527227555
  endloop
endfacet
facet normal 0.0 0.0 1.0
  outer loop
    vertex 78.78136727846044 208.62556762248244 145.0358527227555
    vertex 81.49206596502725 200.37086941654434 145.0358527227555
    vertex 79.25049994606553 207.85808695331133 145.0358527227555
  endloop
endfacet
facet normal 0.0 0.0 1.0
  outer loop
    vertex 79.25049994606553 207.85808695331133 145.0358527227555
    vertex 81.49206596502725 200.37086941654434 145.0358527227555
    vertex 79.87546569552629 207.21114812361677 145.0358527227555
  endloop
endfacet
facet normal 0.0 0.0 1.0
  outer loop
    vertex 79.87546569552629 207.21114812361677 145.0358527227555
    vertex 81.49206596502725 200.37086941654434 145.0358527227555
    vertex 80.62628400837282 206.7157857325737 145.0358527227555
  endloop
endfacet
facet normal 0.0 0.0 1.0
  outer loop
    vertex 80.62628400837282 206.7157857325737 145.0358527227555
    vertex 81.49206596502725 200.37086941654434 145.0358527227555
    vertex 81.46693703512251 206.3957630365314 145.0358527227555
  endloop
endfacet
facet normal 0.0 0.0 1.0
  outer loop
    vertex 77.49206596502725 220.37086941654434 145.0358527227555
    vertex 78.49057267097282 211.2649658689754 145.0358527227555
    vertex 81.49206596502725 220.37086941654434 145.0358527227555
  endloop
endfacet
facet normal 0.0 0.0 1.0
  outer loop
    vertex 78.49057267097282 211.2649658689754 145.0358527227555
    vertex 77.49206596502725 220.37086941654434 145.0358527227555
    vertex 78.3920659650272 210.3708694165446 145.0358527227555
  endloop
endfacet
facet normal 0.0 0.0 1.0
  outer loop
    vertex 81.49206596502725 220.37086941654434 145.0358527227555
    vertex 78.49057267097282 211.2649658689754 145.0358527227555
    vertex 78.78136727846044 212.11617121060672 145.0358527227555
  endloop
endfacet
facet normal 0.0 0.0 1.0
  outer loop
    vertex 81.49206596502725 220.37086941654434 145.0358527227555
    vertex 78.78136727846044 212.11617121060672 145.0358527227555
    vertex 79.25049994606553 212.88365187977783 145.0358527227555
  endloop
endfacet
facet normal 0.0 0.0 1.0
  outer loop
    vertex 81.49206596502725 220.37086941654434 145.0358527227555
    vertex 79.25049994606553 212.88365187977783 145.0358527227555
    vertex 79.87546569552629 213.5305907094724 145.0358527227555
  endloop
endfacet
facet normal 0.0 0.0 1.0
  outer loop
    vertex 81.49206596502725 220.37086941654434 145.0358527227555
    vertex 79.87546569552629 213.5305907094724 145.0358527227555
    vertex 80.62628400837282 214.02595310051547 145.0358527227555
  endloop
endfacet
facet normal 0.0 0.0 1.0
  outer loop
    vertex 81.49206596502725 220.37086941654434 145.0358527227555
    vertex 80.62628400837282 214.02595310051547 145.0358527227555
    vertex 81.46693703512251 214.34597579655775 145.0358527227555
  endloop
endfacet
facet normal 2.6861999234514938e-05 2.7014476051427677e-18 -0.9999999996392166
  outer loop
    vertex 77.49206596502725 220.37086941654434 130.03585272275552
    vertex 78.3920659650272 210.3708694165446 130.03762972275553
    vertex 77.49206596502727 200.37086941654434 130.03585272275552
  endloop
endfacet
facet normal 2.6861999234514938e-05 2.7014476051427677e-18 -0.9999999996392166
  outer loop
    vertex 78.3920659650272 210.3708694165446 130.03762972275553
    vertex 77.49206596502725 220.37086941654434 130.03585272275552
    vertex 78.49057267097282 211.2649658689754 130.03762972275553
  endloop
endfacet
facet normal 2.6861999234514938e-05 2.7014476051427677e-18 -0.9999999996392166
  outer loop
    vertex 78.49057267097282 211.2649658689754 130.03762972275553
    vertex 77.49206596502725 220.37086941654434 130.03585272275552
    vertex 81.49206596502725 220.37086941654434 130.03585272275552
  endloop
endfacet
facet normal 2.6861999234514938e-05 2.7014476051427677e-18 -0.9999999996392166
  outer loop
    vertex 78.49057267097282 211.2649658689754 130.03762972275553
    vertex 81.49206596502725 220.37086941654434 130.03585272275552
    vertex 78.78136727846044 212.11617121060672 130.03762972275553
  endloop
endfacet
facet normal 2.6861999234514938e-05 2.7014476051427677e-18 -0.9999999996392166
  outer loop
    vertex 78.78136727846044 212.11617121060672 130.03762972275553
    vertex 81.49206596502725 220.37086941654434 130.03585272275552
    vertex 79.25049994606553 212.88365187977783 130.03762972275553
  endloop
endfacet
facet normal 2.6861999234514938e-05 2.7014476051427677e-18 -0.9999999996392166
  outer loop
    vertex 79.25049994606553 212.88365187977783 130.03762972275553
    vertex 81.49206596502725 220.37086941654434 130.03585272275552
    vertex 79.87546569552629 213.5305907094724 130.03762972275553
  endloop
endfacet
facet normal 2.6861999234514938e-05 2.7014476051427677e-18 -0.9999999996392166
  outer loop
    vertex 79.87546569552629 213.5305907094724 130.03762972275553
    vertex 81.49206596502725 220.37086941654434 130.03585272275552
    vertex 80.62628400837282 214.02595310051547 130.03762972275553
  endloop
endfacet
facet normal 2.6861999234514938e-05 2.7014476051427677e-18 -0.9999999996392166
  outer loop
    vertex 80.62628400837282 214.02595310051547 130.03762972275553
    vertex 81.49206596502725 220.37086941654434 130.03585272275552
    vertex 81.46693703512251 214.34597579655775 130.03762972275553
  endloop
endfacet
facet normal 2.6861999234514938e-05 2.7014476051427677e-18 -0.9999999996392166
  outer loop
    vertex 77.49206596502727 200.37086941654434 130.03585272275552
    vertex 78.49057267097282 209.47677296411376 130.03762972275553
    vertex 81.49206596502727 200.37086941654434 130.03585272275552
  endloop
endfacet
facet normal 2.6861999234514938e-05 2.7014476051427677e-18 -0.9999999996392166
  outer loop
    vertex 78.49057267097282 209.47677296411376 130.03762972275553
    vertex 77.49206596502727 200.37086941654434 130.03585272275552
    vertex 78.3920659650272 210.3708694165446 130.03762972275553
  endloop
endfacet
facet normal 2.6861999234514938e-05 2.7014476051427677e-18 -0.9999999996392166
  outer loop
    vertex 81.49206596502727 200.37086941654434 130.03585272275552
    vertex 78.49057267097282 209.47677296411376 130.03762972275553
    vertex 78.78136727846044 208.62556762248244 130.03762972275553
  endloop
endfacet
facet normal 2.6861999234514938e-05 2.7014476051427677e-18 -0.9999999996392166
  outer loop
    vertex 81.49206596502727 200.37086941654434 130.03585272275552
    vertex 78.78136727846044 208.62556762248244 130.03762972275553
    vertex 79.25049994606553 207.85808695331133 130.03762972275553
  endloop
endfacet
facet normal 2.6861999234514938e-05 2.7014476051427677e-18 -0.9999999996392166
  outer loop
    vertex 81.49206596502727 200.37086941654434 130.03585272275552
    vertex 79.25049994606553 207.85808695331133 130.03762972275553
    vertex 79.87546569552629 207.21114812361677 130.03762972275553
  endloop
endfacet
facet normal 2.6861999234514938e-05 2.7014476051427677e-18 -0.9999999996392166
  outer loop
    vertex 81.49206596502727 200.37086941654434 130.03585272275552
    vertex 79.87546569552629 207.21114812361677 130.03762972275553
    vertex 80.62628400837282 206.7157857325737 130.03762972275553
  endloop
endfacet
facet normal 2.6861999234514938e-05 2.7014476051427677e-18 -0.9999999996392166
  outer loop
    vertex 81.49206596502727 200.37086941654434 130.03585272275552
    vertex 80.62628400837282 206.7157857325737 130.03762972275553
    vertex 81.46693703512251 206.3957630365314 130.03762972275553
  endloop
endfacet
facet normal 0.3557758365143733 0.9345713210624955 -4.228931973424554e-30
  outer loop
    vertex 80.62628400837282 206.7157857325737 145.0358527227555
    vertex 81.46693703512251 206.3957630365314 130.03762972275553
    vertex 80.62628400837282 206.7157857325737 130.03762972275553
  endloop
endfacet
facet normal 0.3557758365143733 0.9345713210624955 -4.228931973424554e-30
  outer loop
    vertex 81.46693703512251 206.3957630365314 130.03762972275553
    vertex 80.62628400837282 206.7157857325737 145.0358527227555
    vertex 81.46693703512251 206.3957630365314 145.0358527227555
  endloop
endfacet
facet normal 0.3557758365143732 -0.9345713210624955 -4.228931973424554e-30
  outer loop
    vertex 81.46693703512251 214.34597579655775 145.0358527227555
    vertex 80.62628400837282 214.02595310051547 130.03762972275553
    vertex 81.46693703512251 214.34597579655775 130.03762972275553
  endloop
endfacet
facet normal 0.3557758365143732 -0.9345713210624955 -4.228931973424554e-30
  outer loop
    vertex 80.62628400837282 214.02595310051547 130.03762972275553
    vertex 81.46693703512251 214.34597579655775 145.0358527227555
    vertex 80.62628400837282 214.02595310051547 145.0358527227555
  endloop
endfacet
facet normal 0.5507045944885892 -0.8347002154121914 0.0
  outer loop
    vertex 80.62628400837282 214.02595310051547 145.0358527227555
    vertex 79.87546569552629 213.5305907094724 130.03762972275553
    vertex 80.62628400837282 214.02595310051547 130.03762972275553
  endloop
endfacet
facet normal 0.5507045944885892 -0.8347002154121914 0.0
  outer loop
    vertex 79.87546569552629 213.5305907094724 130.03762972275553
    vertex 80.62628400837282 214.02595310051547 145.0358527227555
    vertex 79.87546569552629 213.5305907094724 145.0358527227555
  endloop
endfacet
facet normal 0.7192152499015325 -0.6947873230774121 0.0
  outer loop
    vertex 79.87546569552629 213.5305907094724 130.03762972275553
    vertex 79.25049994606553 212.88365187977783 145.0358527227555
    vertex 79.25049994606553 212.88365187977783 130.03762972275553
  endloop
endfacet
facet normal 0.7192152499015325 -0.6947873230774121 0.0
  outer loop
    vertex 79.25049994606553 212.88365187977783 145.0358527227555
    vertex 79.87546569552629 213.5305907094724 130.03762972275553
    vertex 79.87546569552629 213.5305907094724 145.0358527227555
  endloop
endfacet
facet normal 0.8532241008521763 -0.5215444695565233 0.0
  outer loop
    vertex 79.25049994606553 212.88365187977783 130.03762972275553
    vertex 78.78136727846044 212.11617121060672 145.0358527227555
    vertex 78.78136727846044 212.11617121060672 130.03762972275553
  endloop
endfacet
facet normal 0.8532241008521763 -0.5215444695565233 0.0
  outer loop
    vertex 78.78136727846044 212.11617121060672 145.0358527227555
    vertex 79.25049994606553 212.88365187977783 130.03762972275553
    vertex 79.25049994606553 212.88365187977783 145.0358527227555
  endloop
endfacet
facet normal 0.9463025473180293 -0.3232823671953188 0.0
  outer loop
    vertex 78.78136727846044 212.11617121060672 130.03762972275553
    vertex 78.49057267097282 211.2649658689754 145.0358527227555
    vertex 78.49057267097282 211.2649658689754 130.03762972275553
  endloop
endfacet
facet normal 0.9463025473180293 -0.3232823671953188 0.0
  outer loop
    vertex 78.49057267097282 211.2649658689754 145.0358527227555
    vertex 78.78136727846044 212.11617121060672 130.03762972275553
    vertex 78.78136727846044 212.11617121060672 145.0358527227555
  endloop
endfacet
facet normal 0.993985480473786 -0.10951193819532631 0.0
  outer loop
    vertex 78.49057267097282 211.2649658689754 130.03762972275553
    vertex 78.3920659650272 210.3708694165446 145.0358527227555
    vertex 78.3920659650272 210.3708694165446 130.03762972275553
  endloop
endfacet
facet normal 0.993985480473786 -0.10951193819532631 0.0
  outer loop
    vertex 78.3920659650272 210.3708694165446 145.0358527227555
    vertex 78.49057267097282 211.2649658689754 130.03762972275553
    vertex 78.49057267097282 211.2649658689754 145.0358527227555
  endloop
endfacet
facet normal 0.9939854804737873 0.10951193819531392 0.0
  outer loop
    vertex 78.3920659650272 210.3708694165446 130.03762972275553
    vertex 78.49057267097282 209.47677296411376 145.0358527227555
    vertex 78.49057267097282 209.47677296411376 130.03762972275553
  endloop
endfacet
facet normal 0.9939854804737873 0.10951193819531392 0.0
  outer loop
    vertex 78.49057267097282 209.47677296411376 145.0358527227555
    vertex 78.3920659650272 210.3708694165446 130.03762972275553
    vertex 78.3920659650272 210.3708694165446 145.0358527227555
  endloop
endfacet
facet normal 0.9463025473180255 0.32328236719533 0.0
  outer loop
    vertex 78.49057267097282 209.47677296411376 130.03762972275553
    vertex 78.78136727846044 208.62556762248244 145.0358527227555
    vertex 78.78136727846044 208.62556762248244 130.03762972275553
  endloop
endfacet
facet normal 0.9463025473180255 0.32328236719533 0.0
  outer loop
    vertex 78.78136727846044 208.62556762248244 145.0358527227555
    vertex 78.49057267097282 209.47677296411376 130.03762972275553
    vertex 78.49057267097282 209.47677296411376 145.0358527227555
  endloop
endfacet
facet normal 0.8532241008521763 0.5215444695565233 0.0
  outer loop
    vertex 78.78136727846044 208.62556762248244 130.03762972275553
    vertex 79.25049994606553 207.85808695331133 145.0358527227555
    vertex 79.25049994606553 207.85808695331133 130.03762972275553
  endloop
endfacet
facet normal 0.8532241008521763 0.5215444695565233 0.0
  outer loop
    vertex 79.25049994606553 207.85808695331133 145.0358527227555
    vertex 78.78136727846044 208.62556762248244 130.03762972275553
    vertex 78.78136727846044 208.62556762248244 145.0358527227555
  endloop
endfacet
facet normal 0.7192152499015325 0.6947873230774121 0.0
  outer loop
    vertex 79.25049994606553 207.85808695331133 130.03762972275553
    vertex 79.87546569552629 207.21114812361677 145.0358527227555
    vertex 79.87546569552629 207.21114812361677 130.03762972275553
  endloop
endfacet
facet normal 0.7192152499015325 0.6947873230774121 0.0
  outer loop
    vertex 79.87546569552629 207.21114812361677 145.0358527227555
    vertex 79.25049994606553 207.85808695331133 130.03762972275553
    vertex 79.25049994606553 207.85808695331133 145.0358527227555
  endloop
endfacet
facet normal 0.5507045944885892 0.8347002154121914 0.0
  outer loop
    vertex 79.87546569552629 207.21114812361677 145.0358527227555
    vertex 80.62628400837282 206.7157857325737 130.03762972275553
    vertex 79.87546569552629 207.21114812361677 130.03762972275553
  endloop
endfacet
facet normal 0.5507045944885892 0.8347002154121914 0.0
  outer loop
    vertex 80.62628400837282 206.7157857325737 130.03762972275553
    vertex 79.87546569552629 207.21114812361677 145.0358527227555
    vertex 80.62628400837282 206.7157857325737 145.0358527227555
  endloop
endfacet
facet normal 0.9999913021169932 -0.004170814112449184 -3.38756379102632e-20
  outer loop
    vertex 81.46693703512251 214.34597579655775 130.03762972275553
    vertex 81.49206596502722 215.82879873060273 137.09586034608122
    vertex 81.46693703512251 214.34597579655775 145.0358527227555
  endloop
endfacet
facet normal 0.9999913021169932 -0.004170814112449184 -3.38756379102632e-20
  outer loop
    vertex 81.49206596502722 215.82879873060273 137.09586034608122
    vertex 81.46693703512251 214.34597579655775 130.03762972275553
    vertex 81.49206596502722 215.99862944886064 136.6858527227555
  endloop
endfacet
facet normal 0.9999913021169932 -0.004170814112449184 -3.38756379102632e-20
  outer loop
    vertex 81.49206596502722 215.99862944886064 136.6858527227555
    vertex 81.46693703512251 214.34597579655775 130.03762972275553
    vertex 81.49206596502725 220.37086941654434 130.03585272275552
  endloop
endfacet
facet normal 0.9999913021169932 -0.004170814112449184 -3.38756379102632e-20
  outer loop
    vertex 81.46693703512251 214.34597579655775 145.0358527227555
    vertex 81.49206596502722 215.82879873060273 137.09586034608122
    vertex 81.49206596502722 215.77087263529415 137.53585272275552
  endloop
endfacet
facet normal 0.9999913021169932 -0.004170814112449184 -3.38756379102632e-20
  outer loop
    vertex 81.49206596502722 215.99862944886064 136.6858527227555
    vertex 81.49206596502725 220.37086941654434 130.03585272275552
    vertex 81.49206596502722 216.26879110727702 136.33377119473838
  endloop
endfacet
facet normal 0.9999913021169932 -0.004170814112449184 -3.38756379102632e-20
  outer loop
    vertex 81.49206596502722 216.26879110727702 136.33377119473838
    vertex 81.49206596502725 220.37086941654434 130.03585272275552
    vertex 81.49206596502722 216.62087263529415 136.06360953632196
  endloop
endfacet
facet normal 0.9999913021169932 -0.004170814112449184 -3.38756379102632e-20
  outer loop
    vertex 81.49206596502722 216.62087263529415 136.06360953632196
    vertex 81.49206596502725 220.37086941654434 130.03585272275552
    vertex 81.49206596502722 217.03088025861987 135.8937788180641
  endloop
endfacet
facet normal 0.9999913021169932 -0.004170814112449184 -3.38756379102632e-20
  outer loop
    vertex 81.49206596502722 217.03088025861987 135.8937788180641
    vertex 81.49206596502725 220.37086941654434 130.03585272275552
    vertex 81.49206596502722 217.47087263529417 135.8358527227555
  endloop
endfacet
facet normal 0.9999913021169932 -0.004170814112449184 -3.38756379102632e-20
  outer loop
    vertex 81.49206596502722 217.47087263529417 135.8358527227555
    vertex 81.49206596502725 220.37086941654434 130.03585272275552
    vertex 81.49206596502722 217.9108650119685 135.89377881806408
  endloop
endfacet
facet normal 0.9999913021169932 -0.004170814112449184 -3.38756379102632e-20
  outer loop
    vertex 81.49206596502722 217.9108650119685 135.89377881806408
    vertex 81.49206596502725 220.37086941654434 130.03585272275552
    vertex 81.49206596502722 218.32087263529417 136.06360953632196
  endloop
endfacet
facet normal 0.9999913021169932 -0.004170814112449184 -3.38756379102632e-20
  outer loop
    vertex 81.49206596502722 218.32087263529417 136.06360953632196
    vertex 81.49206596502725 220.37086941654434 130.03585272275552
    vertex 81.49206596502722 218.67295416331132 136.33377119473838
  endloop
endfacet
facet normal 0.9999913021169932 -0.004170814112449184 -3.38756379102632e-20
  outer loop
    vertex 81.49206596502722 218.67295416331132 136.33377119473838
    vertex 81.49206596502725 220.37086941654434 130.03585272275552
    vertex 81.49206596502722 218.94311582172773 136.6858527227555
  endloop
endfacet
facet normal 0.9999913021169932 -0.004170814112449184 -3.38756379102632e-20
  outer loop
    vertex 81.49206596502722 218.94311582172773 136.6858527227555
    vertex 81.49206596502725 220.37086941654434 130.03585272275552
    vertex 81.49206596502722 219.11294653998561 137.09586034608122
  endloop
endfacet
facet normal 0.9999913021169932 -0.004170814112449184 -3.38756379102632e-20
  outer loop
    vertex 81.49206596502722 219.11294653998561 137.09586034608122
    vertex 81.49206596502725 220.37086941654434 130.03585272275552
    vertex 81.49206596502722 219.1708726352942 137.53585272275552
  endloop
endfacet
facet normal 0.9999913021169932 -0.004170814112449184 -3.38756379102632e-20
  outer loop
    vertex 81.46693703512251 214.34597579655775 145.0358527227555
    vertex 81.49206596502722 215.99862944886064 138.38585272275554
    vertex 81.49206596502725 220.37086941654434 145.0358527227555
  endloop
endfacet
facet normal 0.9999913021169932 -0.004170814112449184 -3.38756379102632e-20
  outer loop
    vertex 81.49206596502722 215.99862944886064 138.38585272275554
    vertex 81.46693703512251 214.34597579655775 145.0358527227555
    vertex 81.49206596502722 215.82879873060273 137.97584509942982
  endloop
endfacet
facet normal 0.9999913021169932 -0.004170814112449184 -3.38756379102632e-20
  outer loop
    vertex 81.49206596502722 215.82879873060273 137.97584509942982
    vertex 81.46693703512251 214.34597579655775 145.0358527227555
    vertex 81.49206596502722 215.77087263529415 137.53585272275552
  endloop
endfacet
facet normal 0.9999913021169932 -0.004170814112449184 -3.38756379102632e-20
  outer loop
    vertex 81.49206596502725 220.37086941654434 145.0358527227555
    vertex 81.49206596502722 215.99862944886064 138.38585272275554
    vertex 81.49206596502722 216.26879110727702 138.73793425077267
  endloop
endfacet
facet normal 0.9999913021169932 -0.004170814112449184 -3.38756379102632e-20
  outer loop
    vertex 81.49206596502725 220.37086941654434 145.0358527227555
    vertex 81.49206596502722 216.26879110727702 138.73793425077267
    vertex 81.49206596502722 216.62087263529418 139.00809590918908
  endloop
endfacet
facet normal 0.9999913021169932 -0.004170814112449184 -3.38756379102632e-20
  outer loop
    vertex 81.49206596502725 220.37086941654434 145.0358527227555
    vertex 81.49206596502722 216.62087263529418 139.00809590918908
    vertex 81.49206596502722 217.03088025861987 139.17792662744696
  endloop
endfacet
facet normal 0.9999913021169932 -0.004170814112449184 -3.38756379102632e-20
  outer loop
    vertex 81.49206596502725 220.37086941654434 145.0358527227555
    vertex 81.49206596502722 217.03088025861987 139.17792662744696
    vertex 81.49206596502722 217.47087263529417 139.23585272275554
  endloop
endfacet
facet normal 0.9999913021169932 -0.004170814112449184 -3.38756379102632e-20
  outer loop
    vertex 81.49206596502725 220.37086941654434 145.0358527227555
    vertex 81.49206596502722 217.47087263529417 139.23585272275554
    vertex 81.49206596502722 217.9108650119685 139.17792662744694
  endloop
endfacet
facet normal 0.9999913021169932 -0.004170814112449184 -3.38756379102632e-20
  outer loop
    vertex 81.49206596502725 220.37086941654434 145.0358527227555
    vertex 81.49206596502722 217.9108650119685 139.17792662744694
    vertex 81.49206596502722 218.3208726352942 139.00809590918908
  endloop
endfacet
facet normal 0.9999913021169932 -0.004170814112449184 -3.38756379102632e-20
  outer loop
    vertex 81.49206596502725 220.37086941654434 145.0358527227555
    vertex 81.49206596502722 218.3208726352942 139.00809590918908
    vertex 81.49206596502722 218.67295416331132 138.73793425077267
  endloop
endfacet
facet normal 0.9999913021169932 -0.004170814112449184 -3.38756379102632e-20
  outer loop
    vertex 81.49206596502725 220.37086941654434 145.0358527227555
    vertex 81.49206596502722 218.67295416331132 138.73793425077267
    vertex 81.49206596502722 218.94311582172773 138.38585272275554
  endloop
endfacet
facet normal 0.9999913021169932 -0.004170814112449184 -3.38756379102632e-20
  outer loop
    vertex 81.49206596502725 220.37086941654434 145.0358527227555
    vertex 81.49206596502722 218.94311582172773 138.38585272275554
    vertex 81.49206596502722 219.11294653998561 137.97584509942982
  endloop
endfacet
facet normal 0.9999913021169932 -0.004170814112449184 -3.38756379102632e-20
  outer loop
    vertex 81.49206596502725 220.37086941654434 145.0358527227555
    vertex 81.49206596502722 219.11294653998561 137.97584509942982
    vertex 81.49206596502722 219.1708726352942 137.53585272275552
  endloop
endfacet
facet normal 0.9999913021169932 -0.004170814112449184 -3.38756379102632e-20
  outer loop
    vertex 81.49206596502725 220.37086941654434 145.0358527227555
    vertex 81.49206596502722 219.1708726352942 137.53585272275552
    vertex 81.49206596502725 220.37086941654434 130.03585272275552
  endloop
endfacet
facet normal -1.0 0.0 0.0
  outer loop
    vertex 75.49206596502725 200.37086941654434 143.03585272275552
    vertex 75.49206596502725 201.62879873060277 137.97584509942982
    vertex 75.49206596502725 200.37086941654434 132.03585272275552
  endloop
endfacet
facet normal -1.0 0.0 0.0
  outer loop
    vertex 75.49206596502725 201.62879873060277 137.97584509942982
    vertex 75.49206596502725 200.37086941654434 143.03585272275552
    vertex 75.49206596502725 201.79862944886062 138.38585272275554
  endloop
endfacet
facet normal -1.0 0.0 0.0
  outer loop
    vertex 75.49206596502725 201.79862944886062 138.38585272275554
    vertex 75.49206596502725 200.37086941654434 143.03585272275552
    vertex 75.49206596502725 202.06879110727706 138.73793425077267
  endloop
endfacet
facet normal -1.0 0.0 0.0
  outer loop
    vertex 75.49206596502725 202.06879110727706 138.73793425077267
    vertex 75.49206596502725 200.37086941654434 143.03585272275552
    vertex 75.49206596502725 202.4208726352942 139.00809590918908
  endloop
endfacet
facet normal -1.0 0.0 0.0
  outer loop
    vertex 75.49206596502725 202.4208726352942 139.00809590918908
    vertex 75.49206596502725 200.37086941654434 143.03585272275552
    vertex 75.49206596502725 202.8308802586199 139.17792662744696
  endloop
endfacet
facet normal -1.0 0.0 0.0
  outer loop
    vertex 75.49206596502725 202.8308802586199 139.17792662744696
    vertex 75.49206596502725 200.37086941654434 143.03585272275552
    vertex 75.49206596502725 220.37086941654434 143.03585272275552
  endloop
endfacet
facet normal -1.0 0.0 0.0
  outer loop
    vertex 75.49206596502725 200.37086941654434 132.03585272275552
    vertex 75.49206596502725 201.62879873060277 137.97584509942982
    vertex 75.49206596502725 201.5708726352942 137.53585272275552
  endloop
endfacet
facet normal -1.0 0.0 0.0
  outer loop
    vertex 75.49206596502725 202.8308802586199 139.17792662744696
    vertex 75.49206596502725 220.37086941654434 143.03585272275552
    vertex 75.49206596502725 203.2708726352942 139.23585272275554
  endloop
endfacet
facet normal -1.0 0.0 0.0
  outer loop
    vertex 75.49206596502725 203.2708726352942 139.23585272275554
    vertex 75.49206596502725 220.37086941654434 143.03585272275552
    vertex 75.49206596502725 203.7108650119685 139.17792662744694
  endloop
endfacet
facet normal -1.0 0.0 0.0
  outer loop
    vertex 75.49206596502725 203.7108650119685 139.17792662744694
    vertex 75.49206596502725 220.37086941654434 143.03585272275552
    vertex 75.49206596502725 204.12087263529423 139.00809590918908
  endloop
endfacet
facet normal -1.0 0.0 0.0
  outer loop
    vertex 75.49206596502725 204.12087263529423 139.00809590918908
    vertex 75.49206596502725 220.37086941654434 143.03585272275552
    vertex 75.49206596502725 204.47295416331133 138.73793425077267
  endloop
endfacet
facet normal -1.0 0.0 0.0
  outer loop
    vertex 75.49206596502725 204.47295416331133 138.73793425077267
    vertex 75.49206596502725 220.37086941654434 143.03585272275552
    vertex 75.49206596502725 204.74311582172774 138.38585272275554
  endloop
endfacet
facet normal -1.0 0.0 0.0
  outer loop
    vertex 75.49206596502725 204.74311582172774 138.38585272275554
    vertex 75.49206596502725 220.37086941654434 143.03585272275552
    vertex 75.49206596502725 204.91294653998565 137.97584509942982
  endloop
endfacet
facet normal -1.0 0.0 0.0
  outer loop
    vertex 75.49206596502725 204.91294653998565 137.97584509942982
    vertex 75.49206596502725 220.37086941654434 143.03585272275552
    vertex 75.49206596502725 204.97087263529423 137.53585272275552
  endloop
endfacet
facet normal -1.0 0.0 0.0
  outer loop
    vertex 75.49206596502725 204.97087263529423 137.53585272275552
    vertex 75.49206596502725 220.37086941654434 143.03585272275552
    vertex 75.49206596502725 216.26879110727702 138.73793425077267
  endloop
endfacet
facet normal -1.0 0.0 0.0
  outer loop
    vertex 75.49206596502725 204.97087263529423 137.53585272275552
    vertex 75.49206596502725 216.26879110727702 138.73793425077267
    vertex 75.49206596502725 215.99862944886064 138.38585272275554
  endloop
endfacet
facet normal -1.0 0.0 0.0
  outer loop
    vertex 75.49206596502725 204.97087263529423 137.53585272275552
    vertex 75.49206596502725 215.99862944886064 138.38585272275554
    vertex 75.49206596502725 215.82879873060273 137.97584509942982
  endloop
endfacet
facet normal -1.0 0.0 0.0
  outer loop
    vertex 75.49206596502725 204.97087263529423 137.53585272275552
    vertex 75.49206596502725 215.82879873060273 137.97584509942982
    vertex 75.49206596502725 215.77087263529415 137.53585272275552
  endloop
endfacet
facet normal -1.0 0.0 0.0
  outer loop
    vertex 75.49206596502725 216.26879110727702 138.73793425077267
    vertex 75.49206596502725 220.37086941654434 143.03585272275552
    vertex 75.49206596502725 216.62087263529418 139.00809590918908
  endloop
endfacet
facet normal -1.0 0.0 0.0
  outer loop
    vertex 75.49206596502725 216.62087263529418 139.00809590918908
    vertex 75.49206596502725 220.37086941654434 143.03585272275552
    vertex 75.49206596502725 217.03088025861987 139.17792662744696
  endloop
endfacet
facet normal -1.0 0.0 0.0
  outer loop
    vertex 75.49206596502725 217.03088025861987 139.17792662744696
    vertex 75.49206596502725 220.37086941654434 143.03585272275552
    vertex 75.49206596502725 217.47087263529417 139.23585272275554
  endloop
endfacet
facet normal -1.0 0.0 0.0
  outer loop
    vertex 75.49206596502725 217.47087263529417 139.23585272275554
    vertex 75.49206596502725 220.37086941654434 143.03585272275552
    vertex 75.49206596502725 217.9108650119685 139.17792662744694
  endloop
endfacet
facet normal -1.0 0.0 0.0
  outer loop
    vertex 75.49206596502725 217.9108650119685 139.17792662744694
    vertex 75.49206596502725 220.37086941654434 143.03585272275552
    vertex 75.49206596502725 218.3208726352942 139.00809590918908
  endloop
endfacet
facet normal -1.0 0.0 0.0
  outer loop
    vertex 75.49206596502725 218.3208726352942 139.00809590918908
    vertex 75.49206596502725 220.37086941654434 143.03585272275552
    vertex 75.49206596502725 218.67295416331132 138.73793425077267
  endloop
endfacet
facet normal -1.0 0.0 0.0
  outer loop
    vertex 75.49206596502725 218.67295416331132 138.73793425077267
    vertex 75.49206596502725 220.37086941654434 143.03585272275552
    vertex 75.49206596502725 218.94311582172773 138.38585272275554
  endloop
endfacet
facet normal -1.0 0.0 0.0
  outer loop
    vertex 75.49206596502725 218.94311582172773 138.38585272275554
    vertex 75.49206596502725 220.37086941654434 143.03585272275552
    vertex 75.49206596502725 219.11294653998561 137.97584509942982
  endloop
endfacet
facet normal -1.0 0.0 0.0
  outer loop
    vertex 75.49206596502725 219.11294653998561 137.97584509942982
    vertex 75.49206596502725 220.37086941654434 143.03585272275552
    vertex 75.49206596502725 219.1708726352942 137.53585272275552
  endloop
endfacet
facet normal -1.0 0.0 0.0
  outer loop
    vertex 75.49206596502725 200.37086941654434 132.03585272275552
    vertex 75.49206596502725 202.8308802586199 135.8937788180641
    vertex 75.49206596502725 220.37086941654434 132.03585272275552
  endloop
endfacet
facet normal -1.0 0.0 0.0
  outer loop
    vertex 75.49206596502725 202.8308802586199 135.8937788180641
    vertex 75.49206596502725 200.37086941654434 132.03585272275552
    vertex 75.49206596502725 202.4208726352942 136.06360953632196
  endloop
endfacet
facet normal -1.0 0.0 0.0
  outer loop
    vertex 75.49206596502725 202.4208726352942 136.06360953632196
    vertex 75.49206596502725 200.37086941654434 132.03585272275552
    vertex 75.49206596502725 202.06879110727706 136.33377119473838
  endloop
endfacet
facet normal -1.0 0.0 0.0
  outer loop
    vertex 75.49206596502725 202.06879110727706 136.33377119473838
    vertex 75.49206596502725 200.37086941654434 132.03585272275552
    vertex 75.49206596502725 201.79862944886062 136.6858527227555
  endloop
endfacet
facet normal -1.0 0.0 0.0
  outer loop
    vertex 75.49206596502725 201.79862944886062 136.6858527227555
    vertex 75.49206596502725 200.37086941654434 132.03585272275552
    vertex 75.49206596502725 201.62879873060277 137.09586034608122
  endloop
endfacet
facet normal -1.0 0.0 0.0
  outer loop
    vertex 75.49206596502725 201.62879873060277 137.09586034608122
    vertex 75.49206596502725 200.37086941654434 132.03585272275552
    vertex 75.49206596502725 201.5708726352942 137.53585272275552
  endloop
endfacet
facet normal -1.0 0.0 0.0
  outer loop
    vertex 75.49206596502725 220.37086941654434 132.03585272275552
    vertex 75.49206596502725 202.8308802586199 135.8937788180641
    vertex 75.49206596502725 203.2708726352942 135.8358527227555
  endloop
endfacet
facet normal -1.0 0.0 0.0
  outer loop
    vertex 75.49206596502725 220.37086941654434 132.03585272275552
    vertex 75.49206596502725 203.2708726352942 135.8358527227555
    vertex 75.49206596502725 203.7108650119685 135.89377881806408
  endloop
endfacet
facet normal -1.0 0.0 0.0
  outer loop
    vertex 75.49206596502725 220.37086941654434 132.03585272275552
    vertex 75.49206596502725 203.7108650119685 135.89377881806408
    vertex 75.49206596502725 204.12087263529418 136.06360953632196
  endloop
endfacet
facet normal -1.0 0.0 0.0
  outer loop
    vertex 75.49206596502725 220.37086941654434 132.03585272275552
    vertex 75.49206596502725 204.12087263529418 136.06360953632196
    vertex 75.49206596502725 204.47295416331133 136.33377119473838
  endloop
endfacet
facet normal -1.0 0.0 0.0
  outer loop
    vertex 75.49206596502725 220.37086941654434 132.03585272275552
    vertex 75.49206596502725 204.47295416331133 136.33377119473838
    vertex 75.49206596502725 204.74311582172774 136.6858527227555
  endloop
endfacet
facet normal -1.0 0.0 0.0
  outer loop
    vertex 75.49206596502725 220.37086941654434 132.03585272275552
    vertex 75.49206596502725 204.74311582172774 136.6858527227555
    vertex 75.49206596502725 204.91294653998565 137.09586034608122
  endloop
endfacet
facet normal -1.0 0.0 0.0
  outer loop
    vertex 75.49206596502725 220.37086941654434 132.03585272275552
    vertex 75.49206596502725 204.91294653998565 137.09586034608122
    vertex 75.49206596502725 204.97087263529423 137.53585272275552
  endloop
endfacet
facet normal -1.0 0.0 0.0
  outer loop
    vertex 75.49206596502725 220.37086941654434 132.03585272275552
    vertex 75.49206596502725 204.97087263529423 137.53585272275552
    vertex 75.49206596502725 216.26879110727702 136.33377119473838
  endloop
endfacet
facet normal -1.0 0.0 0.0
  outer loop
    vertex 75.49206596502725 216.26879110727702 136.33377119473838
    vertex 75.49206596502725 204.97087263529423 137.53585272275552
    vertex 75.49206596502725 215.99862944886064 136.6858527227555
  endloop
endfacet
facet normal -1.0 0.0 0.0
  outer loop
    vertex 75.49206596502725 215.99862944886064 136.6858527227555
    vertex 75.49206596502725 204.97087263529423 137.53585272275552
    vertex 75.49206596502725 215.82879873060273 137.09586034608122
  endloop
endfacet
facet normal -1.0 0.0 0.0
  outer loop
    vertex 75.49206596502725 215.82879873060273 137.09586034608122
    vertex 75.49206596502725 204.97087263529423 137.53585272275552
    vertex 75.49206596502725 215.77087263529415 137.53585272275552
  endloop
endfacet
facet normal -1.0 0.0 0.0
  outer loop
    vertex 75.49206596502725 220.37086941654434 132.03585272275552
    vertex 75.49206596502725 216.26879110727702 136.33377119473838
    vertex 75.49206596502725 216.62087263529415 136.06360953632196
  endloop
endfacet
facet normal -1.0 0.0 0.0
  outer loop
    vertex 75.49206596502725 220.37086941654434 132.03585272275552
    vertex 75.49206596502725 216.62087263529415 136.06360953632196
    vertex 75.49206596502725 217.03088025861987 135.8937788180641
  endloop
endfacet
facet normal -1.0 0.0 0.0
  outer loop
    vertex 75.49206596502725 220.37086941654434 132.03585272275552
    vertex 75.49206596502725 217.03088025861987 135.8937788180641
    vertex 75.49206596502725 217.47087263529417 135.8358527227555
  endloop
endfacet
facet normal -1.0 0.0 0.0
  outer loop
    vertex 75.49206596502725 220.37086941654434 132.03585272275552
    vertex 75.49206596502725 217.47087263529417 135.8358527227555
    vertex 75.49206596502725 217.9108650119685 135.89377881806408
  endloop
endfacet
facet normal -1.0 0.0 0.0
  outer loop
    vertex 75.49206596502725 220.37086941654434 132.03585272275552
    vertex 75.49206596502725 217.9108650119685 135.89377881806408
    vertex 75.49206596502725 218.32087263529417 136.06360953632196
  endloop
endfacet
facet normal -1.0 0.0 0.0
  outer loop
    vertex 75.49206596502725 220.37086941654434 132.03585272275552
    vertex 75.49206596502725 218.32087263529417 136.06360953632196
    vertex 75.49206596502725 218.67295416331132 136.33377119473838
  endloop
endfacet
facet normal -1.0 0.0 0.0
  outer loop
    vertex 75.49206596502725 220.37086941654434 132.03585272275552
    vertex 75.49206596502725 218.67295416331132 136.33377119473838
    vertex 75.49206596502725 218.94311582172773 136.6858527227555
  endloop
endfacet
facet normal -1.0 0.0 0.0
  outer loop
    vertex 75.49206596502725 220.37086941654434 132.03585272275552
    vertex 75.49206596502725 218.94311582172773 136.6858527227555
    vertex 75.49206596502725 219.11294653998561 137.09586034608122
  endloop
endfacet
facet normal -1.0 0.0 0.0
  outer loop
    vertex 75.49206596502725 220.37086941654434 132.03585272275552
    vertex 75.49206596502725 219.11294653998561 137.09586034608122
    vertex 75.49206596502725 219.1708726352942 137.53585272275552
  endloop
endfacet
facet normal -1.0 0.0 0.0
  outer loop
    vertex 75.49206596502725 220.37086941654434 132.03585272275552
    vertex 75.49206596502725 219.1708726352942 137.53585272275552
    vertex 75.49206596502725 220.37086941654434 143.03585272275552
  endloop
endfacet
facet normal -0.7071067811865466 -1.9784391614148864e-16 -0.7071067811865485
  outer loop
    vertex 77.49206596502725 220.37086941654434 130.03585272275552
    vertex 75.49206596502725 200.37086941654434 132.03585272275552
    vertex 75.49206596502725 220.37086941654434 132.03585272275552
  endloop
endfacet
facet normal -0.7071067811865466 -1.9784391614148864e-16 -0.7071067811865485
  outer loop
    vertex 75.49206596502725 200.37086941654434 132.03585272275552
    vertex 77.49206596502725 220.37086941654434 130.03585272275552
    vertex 77.49206596502727 200.37086941654434 130.03585272275552
  endloop
endfacet
endsolid WebbingCutter
